<svg id="Layer_1" data-name="Layer 1" xmlns="http://www.w3.org/2000/svg" viewBox="0 0 350 350"><defs><style>.cls-1{fill:#181616;fill-rule:evenodd;}</style></defs><title>github-large</title><path class="cls-1" d="M175.05,3.71C80.35,3.77,3.64,82.48,3.71,179.5,3.76,255,50.93,322.07,120.86,346c8.51,1.63,11.72-3.81,11.72-8.44,0-4.18-.17-18-.23-32.72-47.69,10.65-57.77-20.7-57.77-20.7-7.8-20.36-19-25.71-19-25.71-15.56-10.91,1.16-10.68,1.16-10.68C73.93,249,83,265.84,83,265.84c15.27,26.88,40.08,19.11,49.87,14.54a37.89,37.89,0,0,1,10.87-23.47c-38.06-4.45-78.09-19.51-78.09-86.81A68.84,68.84,0,0,1,83.33,123c-1.76-4.45-7.64-22.31,1.67-46.53,0,0,14.4-4.72,47.15,18a159,159,0,0,1,85.85,0c32.73-22.72,47.09-18,47.09-18,9.34,24.19,3.46,42.05,1.68,46.53a68.61,68.61,0,0,1,17.65,47.12c0,67.47-40.11,82.33-78.29,86.67,6.16,5.44,11.64,16.14,11.64,32.51,0,23.5-.2,42.44-.2,48.23,0,4.65,3.09,10.15,11.78,8.4,89.77-30.87,138.12-130.46,108-222.44C313.92,52,248.62,3.82,175.05,3.71Z"/></svg>