<svg id="Sun" xmlns="http://www.w3.org/2000/svg" xmlns:xlink="http://www.w3.org/1999/xlink" viewBox="0 0 887.01 874.02"><defs><style>.cls-1{fill:#ffae42;}.cls-2{fill:#ffc900;}.cls-3{fill:url(#radial-gradient);}.cls-4{fill:url(#radial-gradient-2);}</style><radialGradient id="radial-gradient" cx="443.51" cy="460.51" r="266.5" gradientUnits="userSpaceOnUse"><stop offset="0" stop-color="#ffdf00"/><stop offset="0.49" stop-color="#ffde02"/><stop offset="0.66" stop-color="#ffd909"/><stop offset="0.79" stop-color="#ffd014"/><stop offset="0.89" stop-color="#ffc325"/><stop offset="0.98" stop-color="#ffb33b"/><stop offset="1" stop-color="#ffae42"/></radialGradient><radialGradient id="radial-gradient-2" cx="1016.5" cy="558.5" r="266.5" gradientUnits="userSpaceOnUse"><stop offset="0" stop-color="#ffdf00"/><stop offset="1" stop-color="#ffae42"/></radialGradient></defs><title>sun-loader</title><path class="cls-1" d="M1009.17,967.5c-7.33-.28-11.83-12.27-18-28.86-9-24-21.36-57-53.32-84-33.61-28.42-72.71-36.36-93-38.57a163.93,163.93,0,0,0-17.61-1c-44.77,0-82.57,18.41-107.57,30.59-12.13,5.9-22.61,11-28,11-1.6,0-2-.46-2.15-.66-2-2.39,5.27-13.28,11.14-22,13.18-19.65,33.11-49.35,36.66-90.09.54-6.15,4.27-61.47-29.6-107.62-28.82-39.27-72.15-54.55-100.82-64.66-15.23-5.37-29.62-10.44-29.32-15.41.28-4.71,14-8.06,28.57-11.6C633.34,538,674.55,528,706.12,494.29c9.61-10.27,40.88-47.55,39.49-96.18-1.4-49.16-36-86.1-58.93-110.55-7.39-7.89-18.53-19.79-18-23a3.57,3.57,0,0,1,1.27-.16c5,0,15.32,4.36,27.3,9.41,25.84,10.9,64.9,27.37,110,27.37a178.78,178.78,0,0,0,31.5-2.77C858.12,295,895.4,284.77,928,255.34c41.58-37.51,53.8-87.22,61.88-120.11,4.11-16.72,8-32.5,13.31-32.73h.14c5.58,0,10.89,16.71,16.51,34.39,11,34.58,27.62,86.84,73.47,120.74,41.37,30.59,90,33.89,109,33.89H1204c50.83-.5,89.72-22.11,115.45-36.4,11-6.09,20.44-11.36,25-11.36.92,0,1.13.23,1.23.33.54.58.44,2.82-1.64,7.23-2.48,5.26-7,12.25-12.35,20.34-18.11,27.67-45.48,69.49-45.22,123.38.1,21.83,4.54,63.57,33,97.86,31.65,38.08,78.2,48.84,109,56,8.77,2,16.36,3.78,21.42,5.72,5.31,2,5.54,3.4,5.54,3.41s-.21,1.19-4.78,3-11.45,3.41-19.45,5.29c-25.86,6.08-64.94,15.28-97.34,45.46-2.11,2-51.81,49-52.43,117.25-.37,41,17.51,73.56,29.35,95.08,6.69,12.17,13,23.66,9.93,26.81a3.15,3.15,0,0,1-2.56.86c-5,0-14-4.58-24.44-9.88-21.44-10.89-53.85-27.34-95-27.34H1197c-54.87.66-95.56,29.22-106.72,38-34.61,27.09-49.56,61-60.47,85.76-7.21,16.36-12.91,29.29-20.29,29.29Z" transform="translate(-572.99 -97.99)"/><path class="cls-2" d="M1003.42,107.57c.82,1,2.26,3.1,4.22,7.72,2.5,5.91,5,13.81,7.93,23,11.17,35.13,28.06,88.22,75.08,123,42.44,31.38,92.21,34.77,111.64,34.77h1.8c52-.51,91.46-22.45,117.59-37,6.14-3.41,13.34-7.41,18.22-9.45-.42.89-1,1.93-1.63,3.15-2.51,4.53-6.13,10-10.31,16.45-18.41,28.12-46.23,70.62-46,125.86.11,22.43,4.68,65.34,34.08,100.71,32.62,39.25,80.06,50.22,111.44,57.48,6.18,1.43,13.3,3.08,18.33,4.66-4.43,1.35-10.4,2.76-15.61,4-26.32,6.19-66.1,15.55-99.38,46.55-2.17,2-53.22,50.38-53.86,120.5-.39,42.22,17.85,75.36,29.91,97.29,3.35,6.08,6.24,11.34,8.12,15.63a29.56,29.56,0,0,1,1.85,5.23c-4.45-.82-12.88-5.1-21.06-9.25C1274,826.74,1241,810,1198.78,810h-1.89c-56.28.67-98,30-109.44,38.91-35.49,27.79-50.7,62.3-61.81,87.5-5.49,12.47-11.72,26.6-16.17,26.6h-.13c-4.34-.17-9.47-13.87-14-26-9.19-24.51-21.77-58.07-54.62-85.84-34.53-29.19-74.63-37.34-95.46-39.6a167.56,167.56,0,0,0-18.09-1c-45.81,0-84.16,18.68-109.54,31-8.57,4.18-17.38,8.46-22.76,10a172.13,172.13,0,0,1,9.45-15.1c13.44-20,33.75-50.32,37.41-92.21a171.85,171.85,0,0,0-1.84-39.53c-4.24-27.1-13.87-51-28.62-71.15-29.64-40.38-73.76-55.94-103-66.23-7.7-2.72-14.36-5.07-19.36-7.37a30.81,30.81,0,0,1-6.17-3.49,29.07,29.07,0,0,1,5.86-2.55c4.82-1.66,11.16-3.2,18.5-5,27.79-6.76,69.79-17,102.27-51.67,9.91-10.59,42.15-49,40.71-99.39-1.45-50.86-36.77-88.56-60.14-113.5-4.19-4.46-9-9.57-12.37-13.69,5,1.76,11.55,4.5,17.92,7.18,26.18,11,65.74,27.73,111.77,27.73a184,184,0,0,0,32.3-2.84c19.79-3.55,58-14,91.44-44.18,42.6-38.44,55-89,63.23-122.38,2.11-8.57,3.93-16,5.86-21.53a29.65,29.65,0,0,1,3.3-7.2m-.08-9.58H1003c-22.08,1-11.17,93.7-78,154-34.38,31-74.06,39.68-87,42a173.83,173.83,0,0,1-30.71,2.7c-66.78,0-119.91-36.79-137.32-36.79-2.29,0-4,.64-5,2.09-9.77,14.07,74,61.24,76.11,136.24,1.42,49.5-33.1,87.44-38.28,93C651.37,546.18,574.19,536.14,573,556c-1.25,20.8,84.23,19.27,131,83,33.17,45.2,29.22,99.17,28.75,104.57C726.92,810.46,675.61,846.79,686,859a6.9,6.9,0,0,0,5.59,2.24c18.62,0,68.75-41.6,135.57-41.6a159,159,0,0,1,17.12.92c13.78,1.5,55.14,7.54,90.62,37.53,55.36,46.81,50.59,113,74.1,113.91h.47c23.61,0,23.65-69.14,83.53-116,6-4.68,47.54-36.32,104-37h1.82c61.36,0,102,37.22,119.4,37.22A7.69,7.69,0,0,0,1324,854c12.9-13.2-38.63-56.26-38-125,.6-65.71,48.47-111.64,51-114,52.11-48.55,122.93-41.5,123-57,.07-17.27-87.86-8.88-137-68-31.73-38.17-32-86-32-95-.41-85,70.57-140.56,58-154a5.86,5.86,0,0,0-4.52-1.76c-17.4,0-66.48,47-140.48,47.76h-1.71c-15.84,0-64.59-2.18-106.29-33-73.18-54.11-69.89-156-92.66-156Z" transform="translate(-572.99 -97.99)"/><circle class="cls-3" cx="443.51" cy="460.51" r="266.5"/><path class="cls-4" d="M1016.5,296a261.72,261.72,0,1,1-102.18,20.63A260.82,260.82,0,0,1,1016.5,296m0-4C869.32,292,750,411.32,750,558.5S869.32,825,1016.5,825,1283,705.68,1283,558.5,1163.68,292,1016.5,292Z" transform="translate(-572.99 -97.99)"/></svg>